<?xml version="1.0" encoding="UTF-8" standalone="no"?>
<!-- Created with Inkscape (http://www.inkscape.org/) -->

<svg
   xmlns:dc="http://purl.org/dc/elements/1.1/"
   xmlns:cc="http://creativecommons.org/ns#"
   xmlns:rdf="http://www.w3.org/1999/02/22-rdf-syntax-ns#"
   xmlns:svg="http://www.w3.org/2000/svg"
   xmlns="http://www.w3.org/2000/svg"
   xmlns:sodipodi="http://sodipodi.sourceforge.net/DTD/sodipodi-0.dtd"
   xmlns:inkscape="http://www.inkscape.org/namespaces/inkscape"
   version="1.1"
   id="svg50179"
   xml:space="preserve"
   width="1066.6667"
   height="1066.6667"
   viewBox="0 0 1066.6667 1066.6667"
   sodipodi:docname="do-not-enter.svg"
   inkscape:version="0.92.4 (5da689c313, 2019-01-14)"><metadata
     id="metadata50185"><rdf:RDF><cc:Work
         rdf:about=""><dc:format>image/svg+xml</dc:format><dc:type
           rdf:resource="http://purl.org/dc/dcmitype/StillImage" /><dc:title></dc:title></cc:Work></rdf:RDF></metadata><defs
     id="defs50183"><clipPath
       clipPathUnits="userSpaceOnUse"
       id="clipPath50195"><path
         d="M 0,800 H 800 V 0 H 0 Z"
         id="path50193"
         inkscape:connector-curvature="0" /></clipPath><radialGradient
       fx="0"
       fy="0"
       cx="0"
       cy="0"
       r="1"
       gradientUnits="userSpaceOnUse"
       gradientTransform="matrix(557.53662,0,0,-557.53662,399.1377,400)"
       spreadMethod="pad"
       id="radialGradient50215"><stop
         style="stop-opacity:1;stop-color:#ffffff"
         offset="0"
         id="stop50209" /><stop
         style="stop-opacity:1;stop-color:#ffffff"
         offset="0.66129"
         id="stop50211" /><stop
         style="stop-opacity:1;stop-color:#c8c8c8"
         offset="1"
         id="stop50213" /></radialGradient><linearGradient
       x1="0"
       y1="0"
       x2="1"
       y2="0"
       gradientUnits="userSpaceOnUse"
       gradientTransform="matrix(30.351562,0,0,-30.351562,382.03418,344)"
       spreadMethod="pad"
       id="linearGradient50249"><stop
         style="stop-opacity:1;stop-color:#e4e0de"
         offset="0"
         id="stop50231" /><stop
         style="stop-opacity:1;stop-color:#e4e0de"
         offset="0.0292797"
         id="stop50233" /><stop
         style="stop-opacity:1;stop-color:#adb2b5"
         offset="0.174157"
         id="stop50235" /><stop
         style="stop-opacity:1;stop-color:#e1e3e5"
         offset="0.331461"
         id="stop50237" /><stop
         style="stop-opacity:1;stop-color:#f1f1f1"
         offset="0.494382"
         id="stop50239" /><stop
         style="stop-opacity:1;stop-color:#f1f1f1"
         offset="0.51059159"
         id="stop50241" /><stop
         style="stop-opacity:1;stop-color:#999fa4"
         offset="0.91573"
         id="stop50243" /><stop
         style="stop-opacity:1;stop-color:#999fa4"
         offset="0.9830691"
         id="stop50245" /><stop
         style="stop-opacity:1;stop-color:#999fa4"
         offset="1"
         id="stop50247" /></linearGradient><linearGradient
       x1="0"
       y1="0"
       x2="1"
       y2="0"
       gradientUnits="userSpaceOnUse"
       gradientTransform="matrix(401.89352,-401.89352,-401.89352,-401.89352,199.05322,581.94629)"
       spreadMethod="pad"
       id="linearGradient50269"><stop
         style="stop-opacity:1;stop-color:#ed1c24"
         offset="0"
         id="stop50265" /><stop
         style="stop-opacity:1;stop-color:#b2151b"
         offset="1"
         id="stop50267" /></linearGradient><clipPath
       clipPathUnits="userSpaceOnUse"
       id="clipPath50295"><path
         d="M 115.818,665.182 H 583.93 V 170.438 H 115.818 Z"
         id="path50293"
         inkscape:connector-curvature="0" /></clipPath><linearGradient
       x1="0"
       y1="0"
       x2="1"
       y2="0"
       gradientUnits="userSpaceOnUse"
       gradientTransform="matrix(210.80414,-210.80414,-210.80414,-210.80414,198.7168,581.60986)"
       spreadMethod="pad"
       id="linearGradient50305"><stop
         style="stop-opacity:1;stop-color:#6d6f71"
         offset="0"
         id="stop50301" /><stop
         style="stop-opacity:1;stop-color:#0d0e0e"
         offset="1"
         id="stop50303" /></linearGradient></defs><sodipodi:namedview
     pagecolor="#ffffff"
     bordercolor="#666666"
     borderopacity="1"
     objecttolerance="10"
     gridtolerance="10"
     guidetolerance="10"
     inkscape:pageopacity="0"
     inkscape:pageshadow="2"
     inkscape:window-width="1920"
     inkscape:window-height="1018"
     id="namedview50181"
     showgrid="false"
     inkscape:zoom="0.75103998"
     inkscape:cx="533.33337"
     inkscape:cy="533.33337"
     inkscape:window-x="-8"
     inkscape:window-y="-8"
     inkscape:window-maximized="1"
     inkscape:current-layer="g50187" /><g
     id="g50187"
     inkscape:groupmode="layer"
     inkscape:label="do-not-enter"
     transform="matrix(1.3333333,0,0,-1.3333333,0,1066.6667)"><g
       id="g50197"><g
         id="g50199"><g
           id="g50205"><g
             id="g50207"><path
               d="M 800,0 H 0 v 800 h 800 z"
               style="fill:url(#radialGradient50215);stroke:none"
               id="path50217"
               inkscape:connector-curvature="0" /></g></g></g></g><g
       id="g50219"><g
         id="g50221"><g
           id="g50227"><g
             id="g50229"><path
               d="M 382.034,688 V 360.254 0 h 30.352 V 360.254 688 Z"
               style="fill:url(#linearGradient50249);stroke:none"
               id="path50251"
               inkscape:connector-curvature="0" /></g></g></g></g><g
       id="g50253"><g
         id="g50255"><g
           id="g50261"><g
             id="g50263"><path
               d="M 684.182,381 C 684.182,224.051 556.949,96.818 400,96.818 243.05,96.818 115.818,224.051 115.818,381 115.818,537.95 243.05,665.182 400,665.182 556.949,665.182 684.182,537.95 684.182,381"
               style="fill:url(#linearGradient50269);stroke:none"
               id="path50271"
               inkscape:connector-curvature="0" /></g></g></g></g><path
       d="M 400,648.515 C 252.492,648.515 132.485,528.508 132.485,381 132.485,233.492 252.492,113.485 400,113.485 c 147.508,0 267.515,120.007 267.515,267.515 0,147.508 -120.007,267.515 -267.515,267.515 m 0,-540.03 c -72.792,0 -141.226,28.347 -192.697,79.818 -51.471,51.471 -79.818,119.906 -79.818,192.697 0,72.792 28.347,141.226 79.818,192.697 51.471,51.471 119.905,79.818 192.697,79.818 72.791,0 141.226,-28.347 192.697,-79.818 51.471,-51.471 79.818,-119.905 79.818,-192.697 0,-72.791 -28.347,-141.226 -79.818,-192.697 C 541.226,136.832 472.791,108.485 400,108.485"
       style="fill:#ffffff;fill-opacity:1;fill-rule:nonzero;stroke:none"
       id="path50273"
       inkscape:connector-curvature="0" /><path
       d="m 129.546,378.938 c 0,72.792 28.347,141.227 79.818,192.698 51.472,51.471 119.907,79.817 192.698,79.817 72.303,0 140.301,-27.979 191.653,-78.799 -0.342,0.346 -0.674,0.699 -1.018,1.043 -51.471,51.471 -119.906,79.818 -192.697,79.818 -72.791,0 -141.226,-28.347 -192.697,-79.818 C 155.832,522.226 127.485,453.792 127.485,381 c 0,-72.791 28.347,-141.226 79.818,-192.697 0.344,-0.344 0.697,-0.676 1.043,-1.018 -50.82,51.352 -78.8,119.35 -78.8,191.653 M 211.97,190.909 c 48.355,-47.837 114.8,-77.424 188.03,-77.424 147.508,0 267.515,120.007 267.515,267.515 0,73.231 -29.587,139.674 -77.424,188.03 49.047,-48.52 79.485,-115.814 79.485,-190.092 0,-147.507 -120.007,-267.514 -267.514,-267.514 -74.278,0 -141.573,30.438 -190.092,79.485"
       style="fill:#a7a9ac;fill-opacity:1;fill-rule:nonzero;stroke:none"
       id="path50275"
       inkscape:connector-curvature="0" /><path
       d="m 637.946,352.814 c 0,-4.868 -3.947,-8.815 -8.815,-8.815 H 170.869 c -4.869,0 -8.815,3.947 -8.815,8.815 v 56.372 c 0,4.868 3.946,8.815 8.815,8.815 h 458.262 c 4.868,0 8.815,-3.947 8.815,-8.815 z"
       style="fill:#ffffff;fill-opacity:1;fill-rule:nonzero;stroke:none"
       id="path50277"
       inkscape:connector-curvature="0" /><path
       d="m 163.646,351.221 v 56.371 c 0,4.868 3.948,8.815 8.816,8.815 h 458.262 c 2.028,0 3.891,-0.692 5.38,-1.844 -1.611,2.088 -4.132,3.438 -6.973,3.438 H 170.869 c -4.868,0 -8.815,-3.947 -8.815,-8.815 v -56.372 c 0,-2.839 1.348,-5.359 3.434,-6.97 -1.15,1.488 -1.842,3.35 -1.842,5.377"
       style="fill:#a7a9ac;fill-opacity:1;fill-rule:nonzero;stroke:none"
       id="path50279"
       inkscape:connector-curvature="0" /><path
       d="m 523.301,526.017 v -14.365 h -11.084 v -57.415 h -18.665 v 57.415 h -11.04 v 14.365 z m -63.223,-18.443 c 0,3.339 -0.183,5.475 -0.554,6.406 -0.369,0.931 -1.13,1.396 -2.284,1.396 -0.975,0 -1.72,-0.376 -2.238,-1.13 -0.517,-0.754 -0.775,-2.978 -0.775,-6.672 v -33.518 c 0,-4.168 0.169,-6.74 0.509,-7.715 0.34,-0.975 1.13,-1.463 2.372,-1.463 1.271,0 2.083,0.561 2.439,1.685 0.353,1.123 0.531,3.798 0.531,8.025 z m 18.666,-23.587 c 0,-7.212 -0.17,-12.319 -0.51,-15.318 -0.339,-3 -1.404,-5.741 -3.193,-8.224 -1.788,-2.483 -4.203,-4.39 -7.248,-5.72 -3.045,-1.329 -6.592,-1.995 -10.642,-1.995 -3.84,0 -7.293,0.628 -10.351,1.885 -3.059,1.256 -5.52,3.14 -7.382,5.653 -1.862,2.512 -2.97,5.246 -3.325,8.201 -0.355,2.956 -0.531,8.128 -0.531,15.518 v 12.281 c 0,7.211 0.168,12.318 0.509,15.318 0.34,3 1.404,5.741 3.192,8.224 1.788,2.482 4.205,4.389 7.249,5.719 3.044,1.33 6.592,1.995 10.639,1.995 3.844,0 7.294,-0.628 10.354,-1.884 3.059,-1.256 5.52,-3.14 7.382,-5.653 1.861,-2.512 2.97,-5.246 3.325,-8.202 0.354,-2.955 0.532,-8.128 0.532,-15.517 z m -50.143,42.03 v -71.78 h -16.36 l -9.71,32.632 v -32.632 h -15.606 v 71.78 h 15.606 l 10.462,-32.321 v 32.321 z m -83.307,-18.443 c 0,3.339 -0.185,5.475 -0.555,6.406 -0.369,0.931 -1.13,1.396 -2.283,1.396 -0.975,0 -1.722,-0.376 -2.239,-1.13 -0.517,-0.754 -0.776,-2.978 -0.776,-6.672 v -33.518 c 0,-4.168 0.17,-6.74 0.51,-7.715 0.341,-0.975 1.131,-1.463 2.372,-1.463 1.271,0 2.084,0.561 2.439,1.685 0.355,1.123 0.532,3.798 0.532,8.025 z m 18.665,-23.587 c 0,-7.212 -0.17,-12.319 -0.51,-15.318 -0.34,-3 -1.404,-5.741 -3.192,-8.224 -1.788,-2.483 -4.204,-4.39 -7.249,-5.72 -3.045,-1.329 -6.591,-1.995 -10.64,-1.995 -3.843,0 -7.294,0.628 -10.353,1.885 -3.059,1.256 -5.52,3.14 -7.382,5.653 -1.862,2.512 -2.97,5.246 -3.325,8.201 -0.354,2.956 -0.532,8.128 -0.532,15.518 v 12.281 c 0,7.211 0.17,12.318 0.51,15.318 0.339,3 1.404,5.741 3.192,8.224 1.789,2.482 4.205,4.389 7.249,5.719 3.044,1.33 6.591,1.995 10.641,1.995 3.841,0 7.293,-0.628 10.352,-1.884 3.059,-1.256 5.519,-3.14 7.382,-5.653 1.862,-2.512 2.97,-5.246 3.325,-8.202 0.355,-2.955 0.532,-8.128 0.532,-15.517 z m -74.174,29.749 v -47.217 c 2.69,0 4.345,0.539 4.966,1.618 0.621,1.079 0.931,4.012 0.931,8.801 v 27.887 c 0,3.251 -0.103,5.335 -0.31,6.251 -0.207,0.916 -0.68,1.589 -1.419,2.017 -0.739,0.429 -2.128,0.643 -4.168,0.643 m -18.665,12.281 h 13.966 c 9.015,0 15.111,-0.414 18.289,-1.242 3.176,-0.827 5.593,-2.186 7.249,-4.078 1.654,-1.892 2.689,-3.997 3.103,-6.318 0.413,-2.32 0.62,-6.879 0.62,-13.678 v -25.138 c 0,-6.443 -0.303,-10.751 -0.909,-12.924 -0.605,-2.172 -1.662,-3.871 -3.169,-5.098 -1.508,-1.227 -3.37,-2.084 -5.587,-2.572 -2.217,-0.488 -5.557,-0.732 -10.019,-0.732 H 271.12 Z"
       style="fill:#ffffff;fill-opacity:1;fill-rule:nonzero;stroke:none"
       id="path50281"
       inkscape:connector-curvature="0" /><path
       d="m 478.278,295.818 v -15.96 c 2.099,0 3.57,0.288 4.411,0.866 0.843,0.575 1.264,2.445 1.264,5.608 v 3.945 c 0,2.277 -0.407,3.768 -1.219,4.477 -0.813,0.711 -2.298,1.064 -4.456,1.064 M 459.612,308.1 h 13.214 c 8.807,0 14.77,-0.34 17.888,-1.019 3.119,-0.681 5.661,-2.417 7.626,-5.21 1.967,-2.794 2.948,-7.249 2.948,-13.367 0,-5.587 -0.693,-9.34 -2.083,-11.262 -1.39,-1.921 -4.123,-3.073 -8.202,-3.458 3.695,-0.916 6.177,-2.141 7.447,-3.679 1.272,-1.537 2.062,-2.949 2.372,-4.234 0.311,-1.285 0.466,-4.826 0.466,-10.618 V 236.32 h -17.335 v 23.854 c 0,3.842 -0.303,6.222 -0.909,7.137 -0.606,0.917 -2.194,1.375 -4.766,1.375 V 236.32 h -18.666 z m -37.728,0 h 31.123 v -14.365 h -12.458 v -13.61 h 11.66 V 266.47 h -11.66 v -15.785 h 13.7 V 236.32 h -32.365 z m -4.257,0 V 293.735 H 406.544 V 236.32 h -18.666 v 57.415 h -11.04 V 308.1 Z m -45.089,0 v -71.78 h -16.36 l -9.71,32.632 V 236.32 h -15.606 v 71.78 h 15.606 l 10.464,-32.321 V 308.1 Z m -79.405,0 h 31.123 v -14.365 h -12.458 v -13.61 h 11.66 V 266.47 h -11.66 v -15.785 h 13.7 V 236.32 h -32.365 z"
       style="fill:#ffffff;fill-opacity:1;fill-rule:nonzero;stroke:none"
       id="path50283"
       inkscape:connector-curvature="0" /><path
       d="m 295.228,306.004 h 29.028 v 2.096 h -31.124 v -71.78 h 2.096 z m 28.23,-25.879 h -9.564 v -2.096 h 9.564 z m -9.564,-31.535 h 11.604 v 2.095 h -11.604 z m 172.154,-12.27 v 21.758 c 0,3.842 -0.303,6.223 -0.908,7.137 -0.307,0.465 -0.868,0.809 -1.677,1.039 0.325,-1.244 0.489,-3.266 0.489,-6.08 V 236.32 Z m -24.34,69.684 h 13.213 c 8.807,0 14.769,-0.34 17.889,-1.018 1.847,-0.403 3.486,-1.187 4.928,-2.331 -1.874,2.331 -4.212,3.812 -7.024,4.426 -3.119,0.679 -9.082,1.019 -17.889,1.019 h -13.213 v -71.78 h 2.096 z M 348.563,266.857 v -4.949 l 7.614,-25.588 h 1.472 z m -15.605,39.147 h 14.188 l -0.678,2.096 h -15.606 v -71.78 h 2.096 z m 45.976,0 h 38.692 v 2.096 h -40.788 v -14.365 h 2.096 z m 11.04,-14.363 h -2.096 v -55.32 h 2.096 z m 34.005,14.363 h 29.028 v 2.096 h -31.123 v -71.78 h 2.095 z m 28.229,-25.879 h -9.564 v -2.096 h 9.564 z m -9.564,-31.535 h 11.605 v 2.095 h -11.605 z m 43.404,35.646 v 3.946 c 0,2.277 -0.406,3.767 -1.219,4.476 -0.315,0.277 -0.735,0.496 -1.254,0.665 0.248,-0.779 0.377,-1.788 0.377,-3.046 v -3.945 c 0,-3.163 -0.42,-5.033 -1.264,-5.608 -0.526,-0.361 -1.297,-0.609 -2.314,-0.744 v -2.216 c 2.098,0 3.568,0.287 4.41,0.865 0.844,0.574 1.264,2.445 1.264,5.607 m 12.402,-14.131 c -0.609,0.737 -1.504,1.4 -2.669,1.994 -0.819,-0.179 -1.71,-0.318 -2.682,-0.41 2.587,-0.641 4.564,-1.438 5.963,-2.383 -0.196,0.264 -0.387,0.527 -0.612,0.799 M 356.931,308.1 h 15.607 v -2.096 h -13.512 v -32.32 l -2.095,6.473 z"
       style="fill:#a7a9ac;fill-opacity:1;fill-rule:nonzero;stroke:none"
       id="path50285"
       inkscape:connector-curvature="0" /><path
       d="m 296.048,510.998 c -0.2,0.116 -0.452,0.215 -0.748,0.3 0.022,-0.076 0.054,-0.143 0.071,-0.222 0.207,-0.916 0.311,-3 0.311,-6.251 v -27.887 c 0,-4.789 -0.311,-7.722 -0.931,-8.801 -0.438,-0.761 -1.402,-1.248 -2.871,-1.472 v -2.242 c 2.69,0 4.346,0.54 4.967,1.619 0.62,1.079 0.93,4.012 0.93,8.8 v 27.887 c 0,3.252 -0.103,5.336 -0.31,6.251 -0.207,0.916 -0.68,1.589 -1.419,2.018 m -22.832,12.924 h 13.965 c 9.015,0 15.111,-0.414 18.289,-1.242 2.291,-0.597 4.18,-1.474 5.68,-2.625 -0.169,0.216 -0.342,0.431 -0.527,0.642 -1.655,1.892 -4.072,3.251 -7.249,4.078 -3.178,0.828 -9.273,1.242 -18.289,1.242 H 271.12 v -71.78 h 2.096 z m 51.416,-63.654 c 0.788,-1.063 1.69,-2.007 2.692,-2.845 -0.204,0.245 -0.405,0.492 -0.596,0.749 -1.862,2.513 -2.969,5.246 -3.325,8.202 -0.354,2.956 -0.531,8.128 -0.531,15.518 v 12.281 c 0,7.211 0.169,12.318 0.509,15.318 0.34,3 1.404,5.741 3.192,8.224 1.789,2.482 4.205,4.389 7.249,5.719 3.044,1.33 6.591,1.995 10.641,1.995 3.842,0 7.293,-0.628 10.352,-1.884 1.764,-0.725 3.322,-1.665 4.688,-2.807 -1.78,2.138 -4.039,3.775 -6.783,4.902 -3.06,1.256 -6.511,1.884 -10.353,1.884 -4.05,0 -7.596,-0.665 -10.64,-1.995 -3.044,-1.33 -5.46,-3.237 -7.249,-5.719 -1.789,-2.483 -2.853,-5.224 -3.193,-8.224 -0.34,-3 -0.509,-8.107 -0.509,-15.318 v -12.281 c 0,-7.39 0.177,-12.562 0.532,-15.518 0.355,-2.955 1.463,-5.689 3.324,-8.201 m 171.015,49.289 h -2.096 v -55.32 h 2.096 z m -11.041,14.365 H 523.3 v 2.095 h -40.789 v -14.365 h 2.095 z M 344.942,513.238 c 0.233,-1.134 0.352,-3.013 0.352,-5.664 v -32.986 c 0,-4.227 -0.178,-6.902 -0.533,-8.025 -0.354,-1.124 -1.167,-1.685 -2.438,-1.685 -0.161,0 -0.293,0.031 -0.438,0.047 0.049,-0.27 0.101,-0.508 0.161,-0.679 0.341,-0.975 1.131,-1.463 2.373,-1.463 1.27,0 2.084,0.561 2.437,1.685 0.356,1.123 0.534,3.798 0.534,8.025 v 32.986 c 0,3.339 -0.186,5.475 -0.555,6.406 -0.324,0.816 -0.968,1.253 -1.893,1.353 m 114.262,-50.455 c 1.27,0 2.082,0.561 2.438,1.685 0.353,1.123 0.531,3.798 0.531,8.025 v 32.986 c 0,3.339 -0.184,5.475 -0.553,6.406 -0.323,0.816 -0.967,1.252 -1.892,1.353 0.232,-1.134 0.349,-3.013 0.349,-5.664 v -32.986 c 0,-4.227 -0.178,-6.902 -0.531,-8.025 -0.356,-1.124 -1.168,-1.685 -2.438,-1.685 -0.161,0 -0.293,0.031 -0.438,0.047 0.049,-0.27 0.101,-0.508 0.161,-0.679 0.34,-0.975 1.131,-1.463 2.373,-1.463 m -70.183,61.139 h 14.188 l -0.679,2.095 h -15.605 v -71.78 h 2.096 z m 50.396,-63.654 c 0.788,-1.063 1.689,-2.007 2.692,-2.845 -0.204,0.245 -0.405,0.492 -0.596,0.749 -1.862,2.513 -2.969,5.246 -3.325,8.202 -0.355,2.956 -0.531,8.128 -0.531,15.518 v 12.281 c 0,7.211 0.168,12.318 0.51,15.318 0.34,3 1.402,5.741 3.191,8.224 1.788,2.482 4.205,4.389 7.248,5.719 3.045,1.33 6.592,1.995 10.641,1.995 3.844,0 7.293,-0.628 10.354,-1.884 1.763,-0.725 3.322,-1.665 4.687,-2.807 -1.78,2.138 -4.039,3.775 -6.783,4.902 -3.061,1.256 -6.51,1.884 -10.354,1.884 -4.048,0 -7.595,-0.665 -10.64,-1.995 -3.043,-1.33 -5.461,-3.237 -7.248,-5.719 -1.789,-2.483 -2.852,-5.224 -3.192,-8.224 -0.342,-3 -0.509,-8.107 -0.509,-15.318 v -12.281 c 0,-7.39 0.175,-12.562 0.531,-15.518 0.355,-2.955 1.463,-5.689 3.324,-8.201 m -27.176,-6.031 h 1.473 l -9.088,30.537 v -4.947 z m 0.752,43.838 v 27.942 h 15.608 v -2.095 h -13.512 v -32.321 z"
       style="fill:#a7a9ac;fill-opacity:1;fill-rule:nonzero;stroke:none"
       id="path50287"
       inkscape:connector-curvature="0" /></g></svg>